<svg width="60" height="60" viewBox="0 0 60 60" fill="none" xmlns="http://www.w3.org/2000/svg">
<g clip-path="url(#clip0_2_229)">
<path d="M53 0H7C3.13401 0 0 3.13401 0 7V53C0 56.866 3.13401 60 7 60H53C56.866 60 60 56.866 60 53V7C60 3.13401 56.866 0 53 0Z" fill="#286FFA"/>
<path d="M36.5509 21.1149C33.866 22.8281 31.3609 24.8083 29.0739 27.025C26.9224 29.2575 25.0176 31.7145 23.392 34.3546C23.392 34.3546 30.0099 28.1041 36.5509 24.7941C40.6217 22.7756 45.0309 21.5281 49.5558 21.1149C49.5558 21.1149 49.9808 21.2007 49.5558 22.1447C49.3378 22.6287 47.2328 25.0098 45.1808 28.1178C43.2718 31.0098 41.4059 34.6481 41.4059 34.6481C41.4059 34.6481 42.9789 40.748 43.6059 44.131C44.2329 47.514 44.376 48.8987 42.869 47.8307C41.497 46.8557 32.2008 40.8499 30.5138 39.7599C30.3958 39.6839 30.884 39.9831 30.309 39.6281C29.734 39.2731 31.9929 36.7219 34.8559 33.5709C37.0314 31.2617 39.3352 29.0767 41.756 27.026C37.8972 28.8778 34.3472 31.3138 31.2318 34.2487C28.055 37.1418 25.0834 40.2524 22.338 43.5577C20.122 46.2577 18.873 48.371 18.246 48.191C17.619 48.011 17.9158 44.9908 18.3678 41.7208C20.0566 30.0984 25.0101 19.1942 32.652 10.276C32.652 10.276 32.991 9.89569 33.287 9.93469C33.583 9.97369 33.859 9.92289 34.673 12.7179C35.487 15.5129 36.5509 21.1149 36.5509 21.1149Z" fill="white"/>
<path d="M20.7219 25.5869C20.7219 25.5869 19.758 28.3311 19.2 30.4731C18.8769 31.6818 18.64 32.912 18.491 34.1542C17.2906 33.5127 16.0578 32.9339 14.7971 32.4208C12.8361 31.6338 10.6479 31.0082 10.6479 31.0082C12.1835 29.7244 13.833 28.5831 15.5759 27.5991C17.2122 26.7416 18.938 26.0666 20.7219 25.5869Z" fill="white"/>
</g>
<defs>
<clipPath id="clip0_2_229">
<rect width="60" height="60" fill="white"/>
</clipPath>
</defs>
</svg>
