<svg width="17" height="13" viewBox="0 0 17 13" fill="none" xmlns="http://www.w3.org/2000/svg">
<g id="Group 2">
<path id="Vector" d="M15.375 6.90775H1.625C1.28 6.90775 1 6.74233 1 6.53851C1 6.3347 1.28 6.16928 1.625 6.16928H15.375C15.72 6.16928 16 6.3347 16 6.53851C16 6.74233 15.72 6.90775 15.375 6.90775Z" fill="#171719" stroke="#171719"/>
<path id="Vector_2" d="M15.375 1.92308H1.625C1.28 1.92308 1 1.71631 1 1.46154C1 1.20677 1.28 1 1.625 1H15.375C15.72 1 16 1.20677 16 1.46154C16 1.71631 15.72 1.92308 15.375 1.92308Z" fill="#171719" stroke="#171719"/>
<path id="Vector_3" d="M15.375 11.8924H1.625C1.28 11.8924 1 11.6856 1 11.4308C1 11.1761 1.28 10.9693 1.625 10.9693H15.375C15.72 10.9693 16 11.1761 16 11.4308C16 11.6856 15.72 11.8924 15.375 11.8924Z" fill="#171719" stroke="#171719"/>
</g>
</svg>
